<?xml version="1.0" standalone="no"?>
<!DOCTYPE svg PUBLIC "-//W3C//DTD SVG 20010904//EN"
 "http://www.w3.org/TR/2001/REC-SVG-20010904/DTD/svg10.dtd">
<svg version="1.0" xmlns="http://www.w3.org/2000/svg"
 width="900.000000pt" height="780.000000pt" viewBox="0 0 900.000000 780.000000"
 preserveAspectRatio="xMidYMid meet">
<metadata>
Created by potrace 1.16, written by Peter Selinger 2001-2019
</metadata>
<g transform="translate(0.000000,780.000000) scale(0.100000,-0.100000)"
fill="#000000" stroke="none">
<path d="M6022 7355 c-7 -8 -22 -15 -32 -15 -11 0 -20 -4 -20 -10 0 -5 -7 -10
-16 -10 -8 0 -20 -13 -25 -30 -6 -16 -16 -30 -21 -30 -6 0 -31 -20 -55 -45
-24 -25 -47 -45 -52 -45 -5 0 -29 -20 -54 -45 -26 -25 -50 -45 -56 -45 -5 0
-27 -18 -49 -40 -21 -22 -42 -40 -45 -40 -4 0 -23 -16 -43 -35 -19 -19 -40
-35 -44 -35 -5 0 -26 -17 -47 -39 -22 -21 -48 -41 -59 -45 -12 -3 -27 -17 -33
-30 -7 -13 -24 -29 -37 -36 -13 -7 -21 -16 -19 -20 3 -5 -6 -11 -20 -14 -13
-3 -29 -15 -35 -26 -6 -11 -17 -20 -25 -20 -8 0 -22 -8 -32 -19 -10 -10 -31
-21 -47 -25 -15 -4 -26 -10 -23 -13 4 -3 -8 -17 -25 -32 -17 -14 -41 -36 -54
-49 -13 -12 -27 -23 -31 -25 -5 -1 -7 -5 -6 -9 2 -5 -6 -8 -16 -8 -11 0 -23
-4 -26 -10 -3 -5 -14 -10 -24 -10 -14 0 -18 -7 -16 -25 2 -17 -2 -25 -11 -25
-9 0 -13 4 -10 8 2 4 -3 8 -13 9 -10 1 -18 -5 -18 -12 0 -8 5 -11 10 -8 6 3 7
1 3 -5 -4 -7 -17 -12 -29 -12 -16 0 -18 -3 -9 -9 11 -6 8 -14 -11 -35 -13 -14
-29 -26 -35 -26 -6 0 -19 -8 -29 -19 -39 -41 -75 -37 -185 20 l-102 52 -87
-47 -88 -47 -20 20 c-11 11 -31 23 -45 27 -18 4 -26 15 -31 42 -6 35 -40 81
-59 82 -9 0 -29 17 -68 58 -12 12 -30 22 -39 22 -10 0 -23 8 -28 19 -6 10 -22
22 -36 25 -14 4 -25 11 -25 16 0 5 -13 16 -30 25 -16 9 -30 12 -30 8 0 -4 -6
2 -14 12 -13 18 -13 18 -24 -1 -6 -10 -12 -14 -12 -9 0 6 -16 17 -35 24 -19 7
-35 17 -35 22 0 5 -11 14 -25 19 -14 5 -25 14 -25 20 0 5 -7 10 -15 10 -8 0
-23 8 -33 18 -10 9 -31 24 -47 32 -16 8 -37 22 -46 30 -37 32 -49 40 -59 40
-5 0 -20 11 -32 25 -12 14 -30 25 -40 25 -10 0 -18 4 -18 10 0 5 -11 12 -25
16 -14 3 -30 15 -36 25 -5 11 -16 19 -24 19 -7 0 -31 18 -53 40 -21 22 -44 40
-50 40 -6 0 -15 6 -19 14 -4 7 -19 19 -32 26 -27 14 -34 19 -74 54 -15 13 -23
26 -17 28 6 2 12 17 12 34 2 63 -90 110 -128 65 -11 -12 -30 -21 -46 -21 -17
0 -31 -7 -38 -20 -12 -22 -10 -90 2 -90 13 0 68 -59 68 -72 0 -7 15 -27 33
-44 19 -17 37 -42 41 -57 3 -14 15 -28 26 -32 10 -3 35 -22 54 -41 18 -18 39
-34 45 -34 6 0 15 -9 21 -19 5 -11 20 -23 31 -26 12 -4 36 -22 53 -41 17 -19
37 -34 43 -34 7 0 13 -7 13 -15 0 -9 11 -20 25 -25 14 -5 25 -14 25 -19 0 -5
9 -12 20 -16 10 -3 40 -26 65 -51 25 -24 50 -44 55 -44 5 0 21 -12 35 -26 21
-20 23 -29 14 -40 -6 -8 -8 -14 -3 -14 5 0 2 -5 -6 -10 -13 -8 -12 -10 3 -10
9 0 17 -5 17 -11 0 -6 7 -8 16 -5 11 4 15 2 11 -8 -3 -7 0 -19 6 -25 15 -15
30 -14 21 2 -4 6 -4 9 1 5 4 -4 13 -18 20 -30 6 -14 18 -22 29 -20 11 2 15 -1
11 -8 -8 -13 22 -39 46 -40 10 0 20 -11 23 -25 4 -14 10 -24 15 -21 4 3 14 -6
21 -19 11 -21 16 -23 29 -12 10 8 13 8 8 0 -5 -8 0 -9 22 0 28 10 33 8 63 -24
18 -18 45 -40 60 -48 43 -22 41 -38 -10 -66 -26 -15 -445 -239 -931 -498
l-884 -471 7 -111 c14 -234 51 -501 102 -735 14 -63 27 -133 30 -155 2 -22 6
-47 7 -55 2 -8 7 -37 11 -65 4 -27 12 -70 17 -95 5 -25 11 -58 14 -75 2 -16
10 -66 18 -110 9 -44 18 -114 21 -155 6 -76 10 -107 21 -140 7 -24 -11 -35
-31 -19 -10 8 -12 15 -4 23 5 5 10 24 10 40 0 52 -21 14 -23 -42 -2 -45 -4
-49 -25 -48 -19 1 -20 3 -7 12 18 14 20 25 3 20 -42 -13 -69 -16 -63 -7 4 7
-5 9 -25 5 -24 -5 -30 -3 -30 11 0 14 6 16 27 11 21 -5 24 -4 13 4 -25 16 -47
11 -64 -15 -9 -14 -24 -25 -34 -26 -13 0 -12 -3 6 -11 13 -7 21 -17 18 -25 -3
-8 -1 -11 4 -8 14 9 12 -9 -2 -23 -19 -19 -25 -14 -23 18 1 25 -2 30 -21 30
-20 0 -21 2 -11 24 10 20 15 22 26 13 12 -9 13 -9 7 0 -5 9 -2 11 8 7 10 -4
17 2 22 20 7 28 31 34 66 15 15 -8 19 -8 14 0 -4 6 -2 11 3 11 6 0 11 5 11 11
0 6 -6 9 -14 6 -9 -4 -14 0 -14 11 0 9 -2 63 -6 120 -4 65 -3 110 4 122 8 16
8 18 -4 14 -20 -8 -34 -50 -41 -124 -7 -85 -23 -181 -31 -189 -3 -3 -11 2 -18
12 -8 9 -26 17 -42 17 -25 -1 -26 -2 -11 -11 9 -5 17 -15 17 -22 0 -8 -3 -7
-9 2 -5 7 -14 12 -21 9 -9 -3 -7 -9 6 -23 13 -13 15 -20 6 -23 -7 -2 -10 -7
-8 -11 3 -4 -1 -8 -9 -8 -10 0 -11 5 -4 18 6 11 5 20 -1 24 -5 3 -10 1 -10 -5
0 -7 -5 -6 -14 2 -8 7 -12 16 -10 20 3 4 11 60 20 125 8 65 19 136 24 158 5
22 10 65 11 95 1 30 4 59 7 63 2 5 6 27 7 50 2 23 6 52 9 64 2 11 8 42 11 67
4 25 12 46 17 46 5 0 6 5 3 11 -4 6 -13 8 -20 5 -22 -8 -85 286 -120 556 -9
68 -18 134 -21 148 -3 14 -6 39 -6 57 l0 32 -152 -5 c-83 -3 -159 -7 -168 -9
-13 -2 -16 3 -13 24 2 18 -1 28 -10 28 -8 0 -11 -5 -8 -10 3 -5 7 -51 9 -101
4 -129 63 -529 101 -683 5 -23 4 -23 -94 -23 -64 0 -103 -4 -111 -12 -8 -8
-12 -67 -12 -200 0 -166 2 -188 16 -188 11 0 14 5 10 17 -4 9 -1 20 6 25 9 5
9 8 1 8 -8 0 -12 47 -12 170 l-1 170 174 0 c140 0 176 -3 186 -15 6 -8 8 -20
4 -26 -4 -7 -3 -9 3 -6 6 4 9 -60 7 -178 -1 -142 -5 -190 -17 -214 -9 -17 -12
-31 -9 -31 4 0 13 -12 20 -27 15 -33 17 -217 2 -208 -5 3 -10 -1 -10 -10 0 -9
-3 -14 -7 -12 -5 3 -14 -1 -21 -9 -10 -11 -10 -14 0 -14 9 0 9 -3 -2 -9 -24
-16 -28 -6 -21 62 1 5 11 5 22 2 16 -5 20 -3 17 6 -3 8 -16 14 -29 15 -45 1
-51 4 -45 19 3 8 1 15 -3 15 -5 0 -11 -4 -13 -10 -2 -6 -8 -6 -18 0 -13 9 -13
11 0 20 11 7 12 12 3 18 -6 4 -13 20 -15 36 -2 24 -8 30 -31 31 -15 0 -32 -4
-38 -11 -5 -6 -10 -52 -10 -103 -1 -78 -3 -91 -17 -91 -10 0 -13 3 -7 8 6 4
12 16 13 26 3 17 1 18 -11 7 -9 -7 -14 -21 -12 -32 4 -22 -5 -25 -24 -6 -11
10 -11 8 0 -10 9 -15 17 -19 23 -13 6 6 17 10 25 10 14 0 14 -2 1 -11 -11 -8
-12 -12 -2 -16 14 -5 17 -43 3 -43 -5 0 -11 6 -14 13 -2 6 -7 9 -11 6 -10 -9
4 -38 17 -35 7 1 9 1 4 -1 -4 -3 -5 -9 -1 -14 3 -5 1 -9 -5 -9 -5 0 -13 4 -16
10 -9 15 -27 12 -20 -2 4 -7 0 -5 -8 5 -10 12 -17 15 -22 7 -4 -6 -2 -17 4
-24 6 -7 8 -15 5 -19 -3 -3 3 -10 15 -16 12 -7 18 -19 16 -31 -5 -27 11 -25
18 2 6 20 20 19 23 -3 1 -5 2 -12 3 -16 0 -3 11 2 23 13 22 19 22 19 8 0 -14
-18 -13 -19 12 -12 21 5 28 3 28 -9 0 -27 18 -16 25 16 6 25 9 28 18 16 9 -11
18 -13 34 -6 29 11 29 24 1 43 -12 9 -18 16 -12 16 15 0 47 -37 41 -47 -3 -5
3 -10 14 -10 17 -2 18 1 9 12 -6 8 -9 19 -5 25 4 6 -1 20 -10 30 -18 20 -14
77 5 65 5 -3 11 -1 15 5 4 6 11 8 16 5 16 -11 10 -23 -16 -29 -14 -4 -25 -11
-25 -17 0 -6 4 -8 9 -5 5 3 12 -6 15 -19 4 -14 11 -23 16 -20 6 3 10 -1 10
-10 0 -9 -5 -13 -10 -10 -7 4 -9 -2 -4 -19 5 -20 2 -26 -9 -26 -9 0 -19 -5
-23 -12 -5 -8 -2 -9 9 -5 10 3 17 2 17 -3 0 -17 -97 -32 -104 -16 -3 8 -7 8
-13 -1 -5 -7 -47 -11 -126 -11 -93 1 -115 3 -107 14 8 9 7 14 -1 20 -9 5 -7
10 7 15 14 6 15 8 3 8 -24 1 -26 138 -1 144 16 4 16 5 0 6 -15 1 -18 10 -18
50 0 34 4 51 15 55 20 7 19 26 0 26 -12 0 -15 10 -14 44 2 24 -3 57 -10 74 -7
17 -11 56 -9 86 1 31 0 56 -4 56 -14 0 -20 -49 -13 -97 4 -27 9 -145 11 -263
2 -118 6 -225 9 -237 3 -12 22 -34 42 -48 34 -23 47 -25 138 -25 67 0 124 7
173 20 73 19 74 19 130 0 31 -11 66 -20 78 -20 18 0 36 -26 99 -147 318 -608
680 -1094 1181 -1583 243 -237 484 -438 757 -630 138 -97 324 -210 345 -210 8
0 54 23 101 52 407 243 869 628 1236 1028 397 432 664 810 935 1324 75 141 88
161 120 174 19 8 47 23 61 33 14 10 29 16 33 12 3 -3 6 1 6 10 0 23 13 21 43
-7 14 -13 46 -33 71 -46 41 -20 57 -21 157 -17 125 5 147 15 187 83 22 37 23
47 20 201 l-4 162 -32 40 c-17 22 -32 43 -32 48 0 4 -20 33 -45 63 -25 30 -45
60 -45 67 0 6 -6 18 -13 25 -19 19 -57 84 -57 96 0 16 43 10 64 -10 11 -10 35
-21 53 -24 29 -6 38 -2 68 28 30 29 35 42 41 100 4 36 3 91 -1 123 -9 77 -37
95 -152 95 -46 0 -83 4 -83 9 0 5 9 53 20 107 25 119 67 410 76 519 3 44 8 83
10 87 3 4 -4 11 -13 17 -17 10 -17 10 2 11 20 1 20 1 1 15 -16 12 -17 15 -4
15 10 0 16 9 16 24 0 23 -2 23 -18 8 -10 -9 -20 -28 -23 -42 -2 -14 -4 -7 -2
15 1 22 -2 49 -6 60 -7 18 -8 17 -7 -5 1 -14 0 -37 0 -52 l-2 -28 -119 0
c-104 0 -120 -2 -127 -17 -4 -10 -6 -22 -5 -26 1 -5 -3 -5 -9 -2 -8 5 -6 14 4
30 18 28 18 79 0 65 -15 -13 -26 0 -14 15 7 9 7 14 -2 18 -10 3 -13 -6 -13
-32 1 -20 -3 -44 -7 -53 -6 -12 -5 -18 4 -18 8 0 9 -3 3 -8 -6 -4 -11 -20 -13
-37 -12 -116 -48 -354 -74 -480 -17 -82 -33 -162 -35 -178 -3 -15 -14 -32 -25
-38 -18 -10 -152 -8 -162 2 -2 2 7 51 20 109 49 216 88 499 108 785 l6 80
-868 463 c-477 254 -893 477 -925 495 l-59 34 27 17 c14 10 44 35 67 58 38 38
41 40 79 30 21 -5 36 -6 33 -1 -3 5 -1 9 5 9 5 0 13 9 16 20 3 11 13 20 21 20
8 0 14 5 14 12 0 6 3 9 6 6 7 -8 50 34 46 45 -1 5 2 6 8 2 5 -3 10 -1 10 4 0
6 7 11 15 11 8 0 15 5 15 11 0 14 47 59 61 59 5 0 10 5 10 10 1 6 2 15 3 20 0
6 8 15 16 20 10 7 11 10 3 10 -7 0 -13 7 -13 15 0 8 4 15 10 15 28 0 134 130
112 138 -25 8 -10 45 38 92 27 28 53 50 58 50 4 0 17 10 28 23 11 12 33 31 48
42 16 11 42 32 59 48 18 15 35 27 39 27 4 0 28 21 54 48 25 26 49 47 54 47 7
0 49 36 78 68 9 9 20 17 25 17 5 0 36 27 69 60 50 51 59 64 54 85 -14 56 -82
85 -114 50z m38 -65 c0 -5 -4 -10 -9 -10 -5 0 -22 -13 -38 -30 -15 -16 -32
-30 -36 -30 -4 0 -30 -22 -58 -50 -27 -27 -54 -50 -58 -50 -4 0 -20 -11 -35
-25 -15 -14 -31 -25 -37 -25 -5 0 -9 -6 -9 -14 0 -8 -10 -16 -23 -20 -13 -3
-29 -16 -36 -30 -7 -13 -25 -30 -39 -37 -14 -8 -44 -31 -66 -51 -21 -21 -43
-38 -48 -38 -5 0 -28 -20 -52 -45 -25 -25 -48 -45 -53 -45 -4 0 -21 -13 -36
-30 -16 -16 -33 -30 -38 -30 -5 0 -32 -22 -59 -50 -27 -27 -53 -50 -58 -50 -4
0 -14 -8 -23 -17 -8 -10 -28 -27 -44 -38 -15 -11 -48 -39 -73 -62 -25 -24 -48
-43 -53 -43 -4 0 -25 -17 -46 -37 -22 -21 -52 -47 -68 -58 -16 -11 -36 -28
-44 -37 -9 -10 -20 -18 -25 -18 -5 0 -26 -18 -47 -40 -21 -22 -43 -40 -48 -40
-5 0 -27 -17 -48 -37 -22 -21 -52 -47 -68 -58 -16 -11 -36 -28 -44 -37 -9 -10
-19 -18 -24 -18 -9 0 -54 -46 -81 -84 -13 -18 -26 -26 -38 -23 -11 3 -18 0
-18 -9 0 -8 -11 -20 -25 -26 -32 -15 -34 -42 -2 -32 12 3 26 13 30 20 4 8 14
14 21 14 8 0 16 7 20 15 3 8 11 15 18 15 8 0 21 9 31 20 9 11 12 20 7 20 -21
0 -9 28 15 34 13 3 29 15 35 26 6 11 15 20 21 20 6 0 27 16 46 35 19 19 41 35
49 35 8 0 17 7 20 15 5 12 8 12 20 0 21 -21 17 -40 -13 -56 -15 -8 -46 -32
-68 -55 -22 -22 -55 -47 -73 -54 -17 -8 -32 -21 -32 -27 0 -7 -6 -13 -13 -13
-7 0 -23 -13 -37 -30 -14 -16 -29 -30 -35 -30 -6 0 -23 -13 -38 -29 -15 -17
-36 -29 -47 -28 -21 1 -27 21 -10 32 6 4 8 11 4 16 -3 6 -3 21 0 35 5 20 11
24 29 19 14 -4 18 -3 9 3 -16 11 -5 42 14 42 8 0 14 5 14 10 0 6 7 10 16 10 9
0 32 16 51 35 19 19 39 35 44 35 5 0 24 16 42 35 17 19 37 35 42 35 6 0 17 8
26 18 8 9 28 26 44 37 16 11 46 37 66 58 21 20 42 37 47 37 6 0 26 16 45 35
19 19 39 35 44 35 5 0 19 10 30 23 32 34 70 67 78 67 3 0 21 16 39 35 19 19
38 35 44 35 6 0 28 18 50 40 21 22 42 40 45 40 3 0 25 18 48 40 23 22 46 40
51 40 5 0 6 5 3 10 -4 6 -2 9 3 8 11 -3 60 35 134 105 27 26 54 47 59 47 5 0
27 18 49 40 22 22 44 40 49 40 5 0 27 18 49 40 22 22 44 40 48 40 5 0 20 12
33 25 13 14 29 25 37 25 8 0 14 7 14 15 0 8 7 15 15 15 8 0 19 9 25 20 6 11
21 22 34 26 13 3 29 16 36 29 7 12 23 29 36 36 13 7 24 16 24 21 0 5 11 13 25
18 14 5 25 14 25 20 0 5 5 10 10 10 6 0 10 -4 10 -10z m-594 -568 c1 -7 0 -8
-2 -3 -5 8 -20 -5 -136 -114 -26 -24 -57 -49 -70 -56 -12 -6 -36 -27 -54 -45
-17 -19 -35 -34 -39 -34 -4 0 -22 -15 -40 -32 -17 -18 -45 -42 -60 -53 -16
-11 -55 -46 -88 -77 -33 -32 -63 -58 -67 -58 -5 0 -25 -16 -44 -35 -39 -38
-51 -42 -59 -22 -5 13 33 57 50 57 5 0 23 16 39 35 16 19 35 35 42 35 7 0 20
9 29 20 10 11 22 20 27 20 5 0 29 20 54 45 24 25 48 45 53 45 5 0 29 20 53 45
25 25 50 45 55 45 5 0 22 14 38 30 15 17 32 30 36 30 5 0 28 20 53 45 24 25
47 45 53 45 5 0 19 11 32 25 25 25 41 28 45 7z m-708 -991 c7 -17 26 -36 42
-43 16 -7 26 -16 24 -20 -3 -4 1 -9 8 -10 7 0 18 -2 23 -3 6 -2 20 -3 32 -4
21 -1 67 -42 112 -100 13 -17 29 -31 37 -31 8 0 13 -5 11 -12 -1 -7 8 -17 21
-23 12 -5 22 -15 22 -22 0 -7 6 -13 13 -13 7 0 20 -8 28 -17 9 -10 33 -33 54
-51 20 -18 43 -45 51 -60 8 -15 14 -22 14 -15 0 7 11 2 25 -11 32 -30 32 -36
-5 -36 -16 0 -30 5 -30 10 0 6 5 10 10 10 6 0 10 4 10 9 0 6 -9 8 -19 6 -14
-3 -55 30 -142 115 -67 66 -130 122 -140 125 -17 6 -23 17 -20 38 0 4 -6 7
-14 7 -8 0 -15 4 -15 8 0 5 -16 14 -35 22 -19 8 -35 18 -35 22 0 5 -8 12 -17
15 -25 9 -63 46 -63 60 0 7 -9 17 -20 23 -11 6 -18 15 -15 21 10 16 20 10 33
-20z m-558 -66 c0 -6 -11 -20 -37 -50 -21 -22 -15 -28 21 -22 34 5 34 5 24
-24 -9 -27 -38 -41 -38 -19 0 6 -7 10 -15 10 -8 0 -15 -5 -15 -11 0 -5 -13
-15 -30 -20 -16 -6 -30 -15 -30 -20 0 -5 -11 -14 -25 -19 -14 -5 -25 -14 -25
-20 0 -5 -8 -10 -18 -10 -9 0 -26 -11 -36 -25 -10 -14 -22 -25 -27 -25 -4 0
-27 -18 -50 -40 -37 -35 -69 -51 -69 -35 0 9 34 45 43 45 5 0 40 32 78 70 38
39 72 70 75 70 6 0 34 25 104 94 51 50 70 64 70 51z m-776 -847 c5 -10 7 -10
12 -1 8 17 600 18 620 2 10 -8 14 -8 14 -1 0 7 23 10 59 10 45 -1 58 -5 54
-15 -3 -7 0 -13 6 -13 6 0 11 7 11 15 0 13 112 15 968 13 l967 -3 0 -225 c0
-219 -1 -226 -22 -247 -13 -13 -20 -29 -17 -38 5 -11 2 -14 -12 -9 -11 4 -25
12 -33 18 -11 8 -13 8 -8 0 4 -8 -5 -13 -26 -16 -53 -6 -544 -1 -571 6 -15 4
-26 3 -26 -2 0 -4 -170 -7 -377 -7 -367 1 -378 2 -375 21 2 18 2 18 -8 2 -6
-10 -18 -18 -26 -18 -9 0 -12 5 -8 11 3 6 -4 4 -17 -4 -30 -20 -90 -19 -107 2
-10 13 -12 13 -10 1 3 -12 -30 -14 -219 -15 -206 0 -240 3 -213 20 18 11 11
35 -10 35 -11 0 -20 5 -20 11 0 5 4 8 9 5 5 -4 16 -3 25 0 13 5 16 23 16 95 0
58 -4 89 -11 89 -6 0 -8 7 -5 17 11 27 18 124 11 150 -5 21 -11 23 -75 23 -39
0 -70 -3 -70 -7 -2 -72 -3 -208 -1 -280 l1 -93 30 0 30 0 0 90 c0 56 4 90 10
90 7 0 10 -30 10 -77 -1 -102 3 -117 28 -121 12 -2 22 -6 22 -10 0 -12 -40
-33 -50 -27 -5 3 -11 1 -15 -4 -7 -12 -105 -2 -123 12 -9 7 -9 13 -2 22 8 9 8
15 0 20 -10 6 -12 0 -14 -40 -1 -19 -8 -20 -103 -20 -57 -1 -103 0 -103 1 0 2
4 14 9 27 8 22 7 26 -13 29 -13 3 -23 0 -23 -6 1 -35 -6 -46 -27 -52 -13 -3
-34 -1 -45 6 -12 6 -21 7 -21 2 0 -5 -101 -8 -225 -8 -173 1 -225 4 -225 14 0
6 -5 12 -11 12 -5 0 -8 -4 -5 -9 3 -5 -1 -12 -9 -15 -9 -3 -18 1 -21 9 -4 8
-10 15 -15 15 -4 0 -6 -6 -3 -14 5 -14 -18 -17 -32 -4 -3 4 -13 4 -21 1 -11
-4 -14 -1 -11 13 2 10 10 18 17 16 7 -1 10 2 6 7 -3 6 -12 8 -20 4 -15 -5 -19
-16 -16 -40 2 -13 -15 -10 -55 9 -20 9 -21 17 -23 249 -1 131 1 244 4 249 10
16 552 13 559 -2z m979 -656 c22 -19 23 -57 2 -48 -8 3 -15 1 -15 -3 0 -5 5
-11 10 -13 6 -2 11 -28 12 -58 2 -106 5 -100 -62 -100 l-59 0 -3 58 -3 57 -49
-1 -50 -1 1 -294 c1 -162 -1 -286 -3 -276 -3 9 -9 17 -14 17 -12 0 -5 -33 8
-38 7 -2 12 -11 12 -20 0 -13 -5 -12 -19 7 -22 28 -46 34 -72 18 -14 -9 -16
-14 -6 -26 10 -12 8 -13 -13 -8 -14 4 -19 4 -12 1 6 -3 9 -10 6 -16 -4 -6 0
-14 7 -19 10 -6 5 -9 -15 -9 -39 0 -22 -18 19 -20 52 -3 62 -1 45 9 -8 6 -18
7 -22 5 -4 -3 -8 -1 -8 5 0 5 6 11 13 14 9 3 9 9 -1 27 -12 19 -12 24 -1 31 8
5 18 4 24 -2 6 -6 5 -13 -5 -19 -13 -8 -12 -10 3 -10 17 0 17 -1 2 -17 -16
-15 -15 -17 12 -28 l28 -12 -26 -6 c-14 -4 -36 -16 -49 -27 -29 -25 -35 -25
-54 2 -18 26 -21 68 -5 68 8 0 8 4 0 14 -7 8 -12 45 -12 83 0 37 -1 156 -2
263 -3 440 -16 408 168 412 153 4 184 1 208 -20z m3023 7 c13 -13 16 -36 15
-110 -1 -53 -5 -95 -11 -97 -6 -2 -10 -8 -10 -13 0 -6 5 -7 10 -4 6 3 10 -1
10 -9 0 -17 -27 -22 -87 -17 l-43 3 0 60 0 59 -52 -3 -53 -3 0 -82 c1 -81 1
-82 41 -130 23 -26 47 -59 55 -73 8 -14 21 -34 30 -45 49 -62 108 -156 114
-185 5 -23 4 -30 -4 -26 -6 4 -11 1 -11 -8 0 -8 -8 -20 -17 -26 -16 -10 -15
-10 4 -5 12 3 24 1 27 -4 9 -13 -24 -43 -40 -37 -9 4 -14 -2 -14 -17 0 -16 -3
-18 -9 -8 -5 8 -16 11 -30 6 -33 -10 -49 10 -49 62 0 33 -6 50 -21 64 -11 11
-28 34 -37 52 -9 18 -41 62 -70 99 -30 37 -54 71 -54 76 0 5 -15 29 -34 52
-22 28 -33 51 -29 64 2 12 4 81 4 153 0 124 2 134 21 147 12 9 25 13 29 10 4
-2 10 -1 13 4 2 4 68 8 145 7 116 0 143 -3 157 -16z m-4446 -4 c-8 -10 -6 -17
12 -29 26 -18 54 -21 63 -6 4 6 -6 10 -23 10 -34 0 -43 7 -35 26 6 16 108 20
131 5 9 -5 12 -28 10 -76 l-3 -68 -44 -4 c-24 -2 -50 -11 -58 -19 -8 -8 -10
-14 -4 -14 6 0 8 -79 5 -232 -4 -182 -9 -236 -20 -249 -8 -8 -14 -22 -14 -29
0 -9 5 -7 15 6 13 18 14 17 15 -19 0 -38 -1 -38 -29 -32 -28 6 -30 4 -29 -24
1 -17 5 -31 10 -31 7 0 11 13 10 30 0 3 8 7 19 7 17 2 19 -5 19 -56 0 -31 -5
-62 -11 -68 -8 -8 -8 -17 0 -31 9 -16 8 -23 -2 -29 -8 -4 -19 -18 -26 -30 -15
-28 -28 -30 -26 -3 1 11 11 27 23 36 12 8 22 20 22 26 0 7 -9 2 -20 -10 -21
-22 -70 -31 -70 -12 0 6 7 10 16 10 8 0 12 5 9 10 -7 11 -45 -5 -45 -20 0 -4
13 -14 29 -21 38 -17 23 -39 -25 -39 -33 0 -34 1 -34 41 0 28 4 38 12 33 8 -5
9 -2 3 12 -16 34 -18 163 -3 181 9 12 9 15 1 9 -10 -5 -13 4 -13 34 0 30 3 39
13 34 9 -6 9 -5 0 7 -7 9 -12 45 -11 90 0 74 1 76 24 71 13 -2 24 -8 24 -13 0
-5 7 -6 15 -3 8 4 17 -1 21 -10 3 -9 10 -16 15 -16 25 0 -19 38 -55 48 l-41
11 -3 131 c-2 114 0 132 12 127 9 -4 18 -2 21 4 4 5 1 8 -6 7 -7 -2 -18 8 -25
22 -13 23 -17 25 -80 21 -72 -3 -104 -16 -104 -41 0 -13 1 -13 10 0 7 10 9
-119 6 -383 -2 -219 -8 -403 -12 -407 -11 -11 -117 -16 -132 -6 -17 10 -10
305 7 315 10 6 8 10 -4 15 -14 5 -15 9 -5 21 7 8 8 15 4 15 -6 0 -8 94 -6 217
2 120 1 227 -2 239 -5 18 -13 21 -58 20 l-52 -1 -7 40 c-8 47 -1 65 16 41 12
-15 14 -15 29 -1 9 9 16 21 16 28 0 6 -6 2 -14 -8 -13 -18 -14 -18 -36 3 -13
12 -20 27 -17 36 5 12 47 15 282 15 232 0 275 -2 265 -14z m404 0 c3 -9 6
-187 7 -396 1 -303 -2 -383 -13 -396 -9 -12 -9 -15 0 -9 16 10 15 -2 -2 -19
-12 -12 -16 -12 -26 0 -16 19 -34 19 -26 0 3 -10 -1 -15 -13 -15 -23 0 -33
-10 -23 -25 4 -6 -1 -2 -12 10 -10 11 -24 19 -30 18 -7 -2 -12 18 -13 52 -1
30 2 55 7 55 6 0 10 5 10 11 0 5 -4 7 -10 4 -5 -3 -10 -2 -10 3 0 5 10 14 23
20 20 10 20 11 2 9 -19 -2 -20 5 -22 255 -2 159 1 259 7 263 13 8 13 45 0 45
-11 0 -14 113 -3 123 3 4 37 7 74 7 51 0 68 -4 73 -15z m551 7 c6 -4 9 -34 7
-69 -4 -70 -4 -70 -94 -65 -50 3 -61 7 -68 25 -7 18 -9 19 -9 4 -1 -10 -5 -15
-11 -12 -6 4 -10 -14 -11 -47 -2 -136 -5 -184 -12 -194 -14 -23 23 -36 105
-38 l83 -1 1 -72 1 -73 -89 0 -88 0 0 -101 c0 -95 -1 -101 -19 -96 -13 3 -18
0 -15 -8 7 -18 -20 -25 -55 -15 -28 8 -31 7 -31 -15 0 -19 4 -23 18 -19 13 5
14 4 4 -4 -16 -11 -13 -45 3 -40 6 2 10 8 9 14 -1 6 5 11 12 11 8 0 14 -6 14
-14 0 -7 -5 -13 -11 -13 -5 0 -7 -4 -4 -10 3 -5 -1 -10 -9 -10 -9 0 -16 -4
-16 -10 0 -16 27 -12 34 5 4 12 11 13 23 7 21 -11 46 -5 37 9 -7 11 -1 11 30
-1 14 -5 26 -6 26 -2 0 12 74 1 83 -12 5 -8 10 -7 17 4 8 13 11 13 27 -2 16
-17 16 -18 -5 -18 -12 0 -22 -4 -22 -10 0 -5 7 -7 15 -4 10 4 15 0 15 -15 0
-12 -6 -21 -13 -21 -8 0 -19 -11 -25 -25 -14 -31 -6 -32 19 -2 14 16 18 18 19
7 0 -32 -23 -40 -114 -39 l-91 0 -30 37 c-16 20 -24 33 -18 29 7 -5 21 -3 32
3 11 5 27 7 36 4 14 -6 14 -8 -2 -21 -17 -13 -16 -14 10 -8 19 4 29 1 33 -10
4 -8 10 -15 15 -15 4 0 5 7 2 17 -4 10 -2 14 5 9 6 -3 13 -2 17 4 12 19 22 10
19 -16 -2 -18 2 -24 13 -22 9 2 18 9 21 17 3 8 0 11 -7 7 -6 -4 -11 -2 -11 3
0 6 8 11 18 12 10 0 12 3 4 6 -6 2 -10 8 -7 13 3 4 -6 7 -20 6 -14 0 -25 -4
-25 -7 0 -12 -38 -17 -51 -7 -11 8 -11 9 2 5 17 -6 39 10 39 26 0 5 -7 4 -15
-3 -8 -7 -15 -8 -15 -4 0 15 40 35 53 28 9 -5 9 -4 1 5 -17 18 -47 10 -59 -17
-12 -28 -25 -29 -25 -1 0 11 4 18 9 14 5 -3 12 -1 16 5 13 20 -34 9 -52 -12
-10 -13 -29 -25 -42 -26 -14 -2 -34 -10 -47 -18 -20 -13 -22 -13 -29 8 -13 38
-15 68 -16 208 0 94 -4 141 -13 155 -19 29 -26 143 -9 157 7 6 13 26 13 45 0
19 4 32 10 28 5 -3 7 -12 3 -20 -3 -8 -1 -15 4 -15 15 0 12 33 -5 53 -10 11
-12 21 -7 25 10 7 35 48 35 57 0 3 -4 5 -10 5 -5 0 -10 -7 -10 -15 0 -8 -4
-15 -10 -15 -5 0 -10 9 -10 20 0 12 7 20 18 20 15 1 15 2 1 10 -13 8 -16 28
-17 102 -1 62 3 95 11 100 15 10 319 10 332 0z m961 -7 c16 -13 17 -16 4 -25
-13 -9 -13 -10 0 -10 13 0 15 -18 12 -111 -3 -99 -5 -110 -20 -105 -15 5 -15
5 -2 -6 23 -19 24 -77 3 -95 -17 -14 -17 -14 0 -9 9 3 17 1 17 -5 0 -20 -29
-79 -39 -79 -6 0 3 -13 20 -29 l31 -30 -3 -173 c-2 -143 -5 -175 -18 -186 -14
-12 -14 -13 2 -8 14 5 17 -1 17 -39 0 -25 -5 -45 -11 -45 -5 0 -8 -4 -5 -9 13
-20 -62 -29 -81 -10 -8 8 -13 8 -17 0 -14 -23 -34 -10 -39 26 -5 28 -3 40 8
46 9 4 13 13 10 18 -4 5 -12 6 -18 2 -7 -4 -6 0 2 10 9 11 10 17 2 17 -17 0
-9 83 9 97 8 6 11 15 7 19 -4 5 -13 2 -18 -6 -7 -11 -9 -2 -8 30 0 25 0 75 0
111 -1 64 -2 67 -28 72 -41 8 -53 -8 -53 -72 0 -60 -8 -103 -19 -97 -3 1 -14
-5 -23 -16 -12 -12 -14 -18 -5 -18 8 0 7 -4 -3 -11 -13 -9 -13 -10 0 -6 8 2
15 10 15 17 0 21 22 23 27 2 7 -25 -2 -82 -13 -82 -5 0 -9 -7 -9 -15 0 -23
-27 -29 -53 -12 -19 12 -24 13 -24 2 0 -8 4 -12 8 -9 4 2 10 0 14 -6 3 -5 -1
-10 -9 -10 -9 0 -16 -4 -16 -10 0 -5 -7 -10 -15 -10 -10 0 -15 10 -15 30 0 18
6 33 15 36 8 4 15 11 15 16 0 6 -6 5 -15 -2 -13 -11 -15 4 -15 124 0 114 2
136 15 136 8 0 15 7 15 15 0 18 -26 20 -36 3 -11 -18 -22 19 -23 75 -1 26 3
47 9 47 5 0 7 7 3 15 -3 10 0 15 8 13 9 -2 13 5 12 17 -1 11 4 23 10 27 9 6 9
8 0 8 -8 0 -12 44 -12 156 -1 85 -2 158 -2 162 -1 4 -1 10 0 15 0 4 77 7 169
7 133 0 172 -3 188 -15z m522 -59 c3 -60 0 -70 -18 -83 -21 -15 -27 -33 -10
-33 6 0 10 7 10 15 0 8 5 15 10 15 6 0 10 -45 10 -114 0 -92 3 -115 15 -120
11 -4 15 -22 15 -74 0 -50 -4 -73 -15 -82 -11 -9 -15 -33 -15 -92 0 -60 -3
-79 -12 -75 -7 2 -12 10 -10 16 4 20 -13 12 -38 -19 -14 -16 -33 -30 -44 -30
-15 0 -16 3 -7 14 8 10 9 16 1 21 -5 3 -10 1 -10 -4 0 -6 -7 -11 -15 -11 -21
0 -19 16 3 25 16 6 16 7 -2 20 -10 8 -15 18 -12 24 4 5 2 12 -3 15 -7 5 -7 93
0 144 1 4 0 9 -1 12 -1 3 -3 68 -3 144 -2 104 1 143 11 153 11 11 11 13 -3 13
-12 0 -15 6 -10 20 6 18 2 20 -44 20 -40 0 -53 -4 -65 -22 -12 -17 -13 -25 -3
-36 8 -11 12 -72 12 -214 0 -109 -2 -198 -5 -198 -4 0 -4 -28 -2 -61 4 -51 2
-63 -12 -71 -14 -8 -15 -13 -5 -24 21 -25 3 -25 -24 0 -20 19 -23 25 -12 30 8
3 15 1 15 -5 0 -6 5 -7 10 -4 6 4 8 10 5 15 -3 5 -1 11 5 15 5 3 10 12 10 18
0 7 -5 4 -11 -6 -8 -14 -14 -16 -25 -6 -7 6 -12 15 -9 19 3 5 1 11 -4 14 -5 3
-8 -7 -7 -23 2 -24 -3 -31 -23 -36 -17 -5 -21 -9 -12 -14 10 -6 9 -10 -4 -15
-9 -3 -15 -12 -12 -20 3 -8 -1 -22 -8 -33 -13 -17 -14 -16 -15 15 0 17 4 32
10 32 5 0 9 16 8 35 -1 19 5 41 12 50 7 8 8 15 3 15 -6 0 -14 -10 -19 -21 -8
-17 -11 -3 -13 57 -1 46 -7 81 -13 86 -18 11 -24 139 -7 152 11 9 14 48 14
178 1 121 4 173 14 192 l14 25 186 -2 186 -2 3 -69z m244 60 c13 -9 17 -27 16
-72 0 -72 1 -451 2 -553 1 -67 -1 -73 -17 -67 -16 5 -17 5 -1 -7 18 -14 18
-79 0 -85 -15 -5 -26 19 -12 28 6 4 10 16 8 26 -3 15 -12 19 -50 19 -55 0 -70
11 -53 42 l12 23 21 -25 c27 -31 36 -31 56 0 19 29 15 32 -9 8 -11 -10 -19
-12 -23 -6 -4 5 -17 16 -30 22 -14 8 -21 18 -18 27 3 8 1 14 -3 14 -11 0 -21
-25 -21 -51 0 -10 -4 -19 -10 -19 -11 0 -11 24 -10 295 1 120 4 172 13 177 9
6 8 8 -2 8 -11 0 -11 3 0 17 10 11 10 14 2 9 -8 -4 -13 -1 -13 9 0 9 5 13 10
10 6 -3 10 1 10 9 0 9 -4 16 -10 16 -6 0 -10 30 -10 70 l0 70 63 0 c35 0 69
-6 79 -14z m222 4 l29 0 -19 -22 c-19 -22 -19 -23 1 -8 11 8 23 20 27 25 4 6
8 8 9 5 9 -35 15 -658 6 -667 -5 -4 -17 -2 -27 5 -12 7 -20 8 -20 2 0 -5 11
-13 26 -16 18 -5 24 -12 22 -27 -2 -11 -11 -21 -20 -23 -10 -1 -15 3 -12 11 3
7 1 15 -3 18 -5 3 -10 -3 -10 -14 -1 -10 -9 -27 -18 -36 -14 -13 -21 -14 -36
-5 -23 15 -29 15 -29 1 0 -5 4 -8 9 -4 6 3 14 -2 19 -11 6 -10 16 -15 26 -11
9 4 16 5 16 3 0 -3 3 -13 7 -23 6 -15 4 -16 -9 -5 -8 7 -23 10 -32 6 -19 -7
-20 -16 -5 -31 9 -9 7 -10 -10 -6 -11 3 -21 10 -22 17 0 6 -4 3 -8 -8 -4 -10
-8 168 -9 394 -2 435 -1 447 42 436 12 -3 34 -6 50 -6z m268 4 c7 -4 6 -9 -1
-13 -8 -5 -4 -14 11 -27 17 -14 19 -15 9 -2 -7 9 -9 22 -6 29 5 7 12 -1 20
-22 7 -19 24 -65 38 -104 14 -38 35 -102 45 -141 11 -39 25 -79 30 -90 6 -10
13 -27 16 -36 16 -51 21 3 18 198 l-3 216 65 -4 c36 -2 68 -7 72 -11 9 -8 12
-585 4 -617 -4 -14 -4 -37 0 -51 5 -17 2 -32 -8 -45 -12 -16 -14 -16 -9 -1 4
11 1 17 -8 17 -8 0 -15 -4 -15 -10 0 -5 -4 -10 -10 -10 -18 0 -11 18 10 25 23
7 27 25 5 25 -8 0 -15 -4 -15 -10 0 -26 -18 -4 -42 51 -24 55 -29 60 -50 53
-13 -4 -32 -7 -43 -6 -19 1 -19 0 -2 -9 10 -6 29 -8 43 -5 33 9 45 -21 17 -43
-11 -9 -18 -22 -15 -29 2 -6 -1 -12 -7 -12 -6 0 -11 5 -11 11 0 8 -5 7 -15 -1
-13 -11 -14 -10 -10 2 4 11 -2 18 -20 22 -17 4 -31 18 -41 41 -18 45 -18 48 6
42 11 -3 20 0 20 6 0 8 4 7 9 -2 5 -8 11 -9 15 -3 7 11 -21 25 -34 17 -4 -3
-11 2 -14 11 -3 8 -11 12 -17 8 -8 -4 -7 -9 2 -15 11 -7 10 -9 -3 -9 -15 0
-18 -9 -18 -50 0 -27 -4 -50 -9 -50 -15 0 -22 -33 -11 -44 8 -8 11 -7 8 3 -2
7 2 15 8 18 7 2 10 -10 10 -32 -1 -34 -17 -47 -31 -24 -4 5 -12 8 -18 6 -7 -2
-18 3 -25 12 -10 12 -12 12 -6 1 14 -26 13 -99 -1 -94 -7 3 -15 -2 -19 -11 -3
-10 -12 -15 -19 -12 -8 3 -13 -9 -14 -36 -3 -37 -2 -39 15 -24 19 17 95 40 87
26 -4 -5 -13 -9 -21 -9 -17 0 -19 -26 -2 -36 7 -4 8 -3 4 4 -4 7 -1 12 8 12
10 0 13 -6 9 -16 -9 -24 -83 -47 -83 -25 0 5 10 12 23 16 19 6 20 8 4 12 -10
3 -24 0 -31 -6 -10 -9 -15 -7 -21 6 -11 28 -16 163 -5 163 5 0 12 9 15 20 3
11 12 20 20 20 7 0 16 7 19 16 3 9 12 14 19 11 8 -3 13 3 13 14 0 24 -8 24
-24 -1 -7 -11 -17 -20 -23 -20 -6 0 -19 -10 -30 -22 -16 -20 -18 -20 -19 -5 0
9 5 17 10 17 6 0 10 7 10 15 0 8 -4 15 -9 15 -5 0 -2 15 7 33 l16 32 7 -25 6
-25 12 29 c8 21 16 27 31 23 11 -3 17 -1 14 4 -3 6 0 16 6 24 10 12 9 15 -9
15 -11 0 -21 5 -21 12 0 6 -3 8 -6 5 -4 -4 -1 -13 6 -22 22 -26 -17 -32 -42
-5 -16 17 -22 19 -29 8 -6 -9 -9 -9 -9 -1 0 6 5 15 10 18 6 3 10 11 10 16 0 6
-5 7 -10 4 -6 -4 -10 11 -8 39 0 25 6 46 12 46 7 0 8 3 1 8 -11 7 -13 26 -15
147 -1 45 3 71 11 74 8 2 8 5 0 10 -8 6 -18 153 -12 191 1 8 101 11 113 4z
m797 -20 c16 -21 20 -39 18 -104 -1 -43 -5 -76 -9 -74 -4 3 -8 -2 -8 -10 0 -8
5 -18 10 -21 14 -9 13 -328 -1 -342 -7 -7 -8 -17 -3 -25 16 -23 11 -161 -6
-176 -10 -9 -11 -11 -1 -6 8 4 12 2 10 -5 -8 -24 -24 -6 -21 24 l3 30 -18 -25
c-10 -14 -17 -29 -15 -33 1 -5 -2 -5 -8 -2 -8 5 -6 13 5 25 14 16 14 18 0 23
-8 4 -15 2 -15 -3 0 -5 -9 -14 -21 -21 -16 -8 -24 -8 -33 2 -8 9 -8 10 0 6 14
-8 27 20 14 28 -4 3 -11 -1 -13 -7 -3 -7 -6 -3 -6 10 -1 16 3 21 12 16 8 -5 7
-2 -2 9 -15 19 -21 128 -10 190 3 20 3 40 -2 42 -4 3 -7 81 -6 174 2 161 1
168 -17 163 -13 -3 -17 -1 -12 6 10 16 -7 15 -23 0 -10 -9 -12 -9 -7 -1 3 6 2
14 -3 17 -5 3 -12 -1 -15 -10 -3 -8 -10 -12 -16 -9 -6 4 -8 11 -5 16 4 5 -7 9
-24 9 -16 0 -31 6 -34 13 -2 6 -8 9 -12 5 -4 -4 1 -20 11 -35 15 -23 19 -25
22 -10 2 9 8 14 13 11 6 -4 4 -13 -6 -24 -12 -13 -13 -20 -4 -25 7 -5 16 -1
21 9 14 25 25 11 20 -28 -2 -20 -7 -34 -11 -32 -9 6 -46 -23 -39 -30 4 -3 15
-1 26 5 15 8 21 7 25 -2 6 -17 -1 -568 -7 -575 -3 -3 -11 0 -18 5 -18 14 -50
13 -68 -2 -8 -6 -23 -15 -33 -18 -10 -4 -15 -11 -12 -17 3 -5 2 -10 -4 -10
-24 0 -19 19 9 32 38 16 38 24 0 32 -16 3 -30 10 -30 16 0 6 5 8 12 4 8 -5 9
-2 3 12 -4 10 -10 50 -12 88 -4 55 -2 67 9 60 10 -6 11 -5 2 7 -8 9 -13 110
-16 317 l-4 302 182 0 183 0 20 -26z m-4485 -444 c58 -162 65 -208 50 -324 -7
-51 -29 -62 -37 -18 -2 15 -19 101 -36 192 -33 170 -53 326 -40 313 4 -5 33
-78 63 -163z m1953 64 c12 -32 6 -277 -7 -269 -5 3 -10 1 -10 -4 0 -6 5 -11
10 -11 6 0 10 -9 10 -20 0 -11 -4 -20 -10 -20 -5 0 -10 4 -10 9 0 16 -28 20
-34 5 -3 -8 -2 -13 2 -10 11 7 52 -22 52 -36 0 -7 -4 -7 -13 1 -8 6 -17 8 -20
4 -13 -12 -7 -23 13 -23 18 0 20 -7 20 -80 0 -50 -4 -80 -11 -80 -5 0 -7 5 -3
12 4 7 3 8 -5 4 -9 -6 -9 -11 1 -24 11 -14 10 -15 -6 -9 -14 5 -17 3 -12 -8 3
-8 -2 -19 -13 -24 -22 -12 -199 -12 -207 0 -3 5 5 9 17 9 16 0 20 3 13 10 -14
14 -44 2 -44 -16 0 -8 -10 -14 -25 -14 -23 0 -32 17 -26 53 0 4 -6 7 -14 7
-19 0 -19 9 -1 50 l13 32 5 -25 c3 -15 0 -28 -6 -30 -7 -3 -2 -14 11 -28 12
-12 26 -19 30 -15 4 5 2 11 -4 13 -7 3 -13 9 -13 14 0 5 9 4 19 -3 11 -7 18
-15 15 -20 -5 -8 42 -3 69 7 9 4 17 11 17 16 0 5 5 9 11 9 5 0 7 -6 3 -12 -4
-7 -3 -10 1 -5 5 4 18 -1 29 -10 21 -18 21 -18 2 5 -12 14 -15 22 -7 22 20 0
43 -29 37 -47 -5 -13 -4 -14 9 -3 8 7 15 19 15 27 0 8 4 12 8 9 4 -2 14 -1 22
4 11 7 9 9 -10 8 -14 0 -30 0 -37 1 -15 1 -9 59 8 75 9 8 10 8 5 -2 -5 -7 -9
-24 -11 -38 -2 -22 1 -24 31 -22 18 1 30 6 27 11 -3 5 1 13 8 18 20 12 20 51
0 47 -9 -2 -27 9 -39 24 -30 36 -39 35 -37 -2 1 -16 -2 -27 -7 -24 -4 3 -5 -1
-2 -9 6 -18 -12 -32 -21 -17 -3 5 -1 10 5 10 6 0 8 4 5 10 -3 5 -1 18 5 29 7
14 7 22 -2 27 -7 5 -4 10 10 15 12 5 22 15 22 23 0 17 -37 28 -44 12 -2 -6 -5
35 -5 91 -1 93 -3 102 -21 108 -17 5 -20 15 -20 69 0 34 3 66 7 69 3 4 42 7
85 7 62 0 80 -3 85 -16z m2109 -520 c-14 -30 -27 -54 -29 -54 -3 0 -3 96 0
213 3 187 6 219 26 275 l22 63 3 -222 c2 -217 2 -222 -22 -275z m635 362 c12
-13 32 -39 43 -58 12 -19 30 -47 40 -63 26 -36 35 -139 14 -148 -26 -9 -40 9
-44 59 -3 26 -10 52 -17 56 -7 5 -43 7 -82 6 -77 -3 -77 -3 -90 -92 -8 -51
-25 -30 -25 31 0 38 60 226 90 283 12 23 13 23 31 -14 10 -20 28 -47 40 -60z
m35 -169 c9 -9 -16 -48 -27 -42 -5 4 -9 1 -9 -6 0 -7 8 -9 21 -6 13 3 19 1 16
-6 -2 -7 -17 -11 -35 -9 -18 2 -32 -1 -32 -7 0 -6 5 -11 11 -11 6 0 4 -7 -5
-15 -8 -8 -20 -15 -26 -15 -7 0 -9 -8 -5 -19 4 -15 0 -18 -19 -18 -19 0 -23 5
-23 26 0 14 -1 46 -2 71 -5 77 -8 73 65 67 36 -2 67 -7 70 -10z m-1556 -20 c0
-5 -9 -6 -19 -2 -19 6 -19 5 -4 -26 9 -17 24 -34 34 -36 22 -6 25 -23 7 -41
-9 -9 -9 -12 0 -12 7 0 12 4 12 8 0 5 19 9 43 9 23 0 32 -2 20 -4 -13 -2 -23
-9 -23 -14 0 -6 5 -7 12 -3 7 4 8 3 4 -5 -5 -7 -13 -8 -23 -2 -9 4 -24 6 -34
4 -11 -3 -22 3 -29 17 -10 18 -10 21 2 14 10 -6 10 -4 -1 10 -8 9 -17 13 -20
9 -9 -12 -41 -15 -41 -3 0 5 9 10 20 10 11 0 20 4 20 9 0 4 -11 6 -25 3 -22
-4 -25 -9 -21 -33 2 -16 1 -29 -4 -29 -4 0 -10 -7 -14 -15 -5 -13 -1 -13 29
-1 39 17 39 17 25 -18 -9 -25 2 -37 15 -16 3 6 12 10 18 9 9 0 9 -2 0 -6 -7
-2 -13 -9 -13 -15 0 -6 7 -8 15 -5 8 4 17 2 20 -3 4 -6 12 -10 18 -10 8 0 8 3
2 8 -16 11 -16 32 0 32 8 0 12 -6 10 -12 -3 -7 0 -20 5 -28 8 -12 11 -13 19
-1 7 11 9 11 14 0 4 -11 8 -11 14 -2 12 16 79 12 75 -5 -1 -8 2 -11 8 -7 6 3
8 11 5 16 -6 9 0 11 40 13 13 1 21 9 23 25 2 14 0 21 -7 17 -5 -4 -8 -13 -4
-21 3 -8 1 -15 -5 -15 -16 0 -22 29 -7 37 7 5 21 22 29 38 9 17 16 23 16 14 0
-8 -5 -20 -11 -26 -9 -9 -8 -18 5 -37 21 -33 20 -40 -8 -67 -23 -22 -33 -23
-181 -27 -137 -2 -160 -1 -176 14 -12 11 -17 24 -13 36 3 11 -1 27 -11 38 -14
16 -14 19 0 33 17 17 20 32 5 22 -6 -4 -10 5 -10 19 0 16 6 26 15 26 8 0 15 4
15 10 0 5 8 7 18 4 14 -5 15 -4 2 5 -13 10 -12 14 8 31 23 19 62 23 62 7z
m-3220 -9 c0 7 4 11 9 8 4 -3 12 -42 15 -86 4 -44 11 -93 16 -110 7 -23 5 -30
-6 -30 -8 0 -14 -4 -14 -10 0 -5 -25 -10 -56 -10 -41 0 -53 3 -48 13 5 8 2 8
-9 -2 -15 -12 -17 -11 -17 7 0 24 25 52 46 52 8 0 14 -7 14 -15 0 -13 3 -13
13 -3 12 10 10 15 -6 29 -19 15 -22 15 -40 -2 -27 -24 -35 -17 -35 31 -1 42 4
43 39 13 14 -11 18 -11 29 2 7 9 10 19 6 22 -4 4 -11 2 -15 -5 -6 -10 -11 -10
-21 3 -11 13 -10 15 3 10 8 -4 18 -1 23 6 4 8 3 10 -4 5 -7 -4 -12 -2 -12 4 0
6 11 15 25 20 18 7 25 17 25 37 0 22 2 25 10 13 7 -11 10 -11 10 -2z m5011
-78 c11 0 17 -5 14 -10 -4 -6 -10 -8 -15 -5 -5 3 -11 1 -15 -5 -3 -5 3 -10 14
-10 23 0 24 -18 1 -38 -8 -7 -10 -11 -5 -10 25 7 11 -58 -15 -72 -28 -15 -147
-13 -147 3 0 6 -2 18 -4 26 -2 7 2 16 10 19 8 3 11 0 7 -7 -5 -7 3 -11 24 -11
18 0 29 4 25 10 -4 6 6 7 27 4 31 -6 32 -6 13 9 -11 8 -24 13 -28 10 -5 -3
-18 5 -29 17 l-21 22 21 -6 c11 -4 23 -2 27 4 3 5 17 7 30 4 28 -7 55 30 36
49 -6 6 -11 16 -11 22 0 5 5 2 11 -7 5 -10 19 -18 30 -18z m-5377 -51 c-10
-11 -15 -22 -12 -25 3 -3 15 4 26 16 16 18 25 20 53 13 29 -8 36 -6 56 16 20
25 28 12 10 -16 -5 -7 -4 -13 2 -13 6 0 8 -13 4 -32 -7 -40 -9 -42 -23 -33 -8
5 -6 14 5 31 9 14 11 24 5 24 -6 0 -16 -13 -21 -30 -12 -34 -23 -38 -38 -12
-6 9 -11 12 -11 6 0 -18 37 -47 42 -33 2 7 10 9 16 5 24 -15 11 -23 -38 -22
-34 0 -47 3 -40 10 5 5 10 15 10 20 0 6 -7 0 -16 -12 -16 -23 -48 -30 -59 -12
-3 5 0 39 6 74 10 53 15 64 26 54 11 -9 11 -14 -3 -29z m1198 14 c-4 -21 -2
-25 11 -20 8 3 22 -2 31 -12 21 -24 20 -34 -3 -28 -18 4 -18 2 -8 -20 7 -16
13 -20 15 -12 2 8 12 20 20 27 14 11 15 15 3 35 -13 20 -13 21 2 8 9 -7 24
-10 34 -7 15 6 15 4 -2 -14 -33 -37 -9 -31 32 7 22 21 38 44 36 51 -3 8 8 12
39 11 37 0 40 -2 20 -10 -13 -5 -27 -7 -32 -4 -4 3 -10 -1 -13 -9 -6 -15 20
-59 31 -52 11 7 46 -23 37 -31 -4 -5 -10 -2 -12 5 -3 6 -14 12 -26 12 -20 -1
-20 -2 -4 -11 39 -23 -3 -60 -45 -38 -10 5 -18 6 -18 1 0 -5 -37 -9 -82 -8
-83 1 -83 1 -86 29 -2 17 1 27 9 27 10 0 10 3 1 12 -16 16 -15 65 1 71 6 3 13
6 13 6 1 1 -1 -11 -4 -26z m3048 -172 c0 -13 77 -61 100 -61 11 0 20 -6 20
-13 0 -15 -102 -201 -178 -322 -233 -373 -490 -694 -826 -1031 -277 -276 -527
-486 -800 -672 l-118 -81 -92 61 c-638 430 -1271 1095 -1675 1760 -71 117
-171 299 -171 311 0 3 22 3 49 0 44 -5 52 -3 77 22 30 30 25 33 76 -55 279
-491 529 -820 908 -1201 263 -264 504 -469 747 -635 l83 -56 102 73 c512 364
969 822 1318 1319 105 150 264 405 331 530 29 54 49 75 49 51z m-2869 -300 c0
-9 0 -106 -1 -216 -1 -136 -5 -204 -13 -214 -9 -12 -9 -13 1 -7 7 4 12 2 12
-5 0 -6 -8 -9 -20 -6 -11 3 -27 -2 -36 -10 -12 -13 -15 -13 -13 -2 1 8 0 25
-4 39 -3 14 -8 116 -11 227 -5 219 -7 211 52 210 22 0 32 -5 33 -16z m799 -28
c0 -40 -2 -43 -27 -43 l-28 0 -3 -175 c-2 -128 -7 -182 -18 -202 -9 -19 -14
-23 -14 -10 0 9 -4 17 -10 17 -5 0 -10 -8 -10 -17 -1 -16 -2 -16 -16 2 -10 13
-15 40 -14 80 1 33 1 115 1 183 l-1 122 -30 0 c-29 0 -30 2 -30 43 l0 42 100
0 100 1 0 -43z m334 41 c12 -5 16 -21 16 -75 l0 -69 -35 0 c-36 0 -40 7 -35
53 1 15 -4 18 -27 15 -25 -3 -28 -7 -31 -44 -3 -35 4 -50 62 -131 56 -81 64
-97 64 -137 0 -26 -3 -44 -8 -41 -5 3 -12 1 -15 -5 -4 -6 -1 -9 6 -8 7 2 13
-5 14 -14 0 -10 -4 -17 -10 -15 -5 1 -9 5 -7 10 3 10 -5 9 -31 -4 -21 -10 -21
-10 -3 5 19 16 19 16 -3 16 -19 0 -22 4 -18 21 8 31 -6 60 -72 154 l-59 83 -1
80 c-1 105 6 112 104 112 40 0 80 -3 89 -6z m1074 -6 c7 -7 12 -39 12 -76 l0
-63 -37 3 c-35 3 -38 6 -41 36 -3 29 -6 33 -30 30 -25 -3 -27 -7 -26 -44 2
-33 15 -60 65 -134 54 -80 63 -100 66 -146 3 -34 0 -54 -6 -54 -6 0 -11 -7
-11 -16 0 -8 4 -13 9 -10 11 7 8 -20 -3 -31 -4 -4 -7 -3 -5 2 4 18 -13 45 -28
45 -8 0 -11 -4 -8 -10 3 -5 0 -7 -8 -5 -8 4 -14 23 -14 55 -1 44 -9 59 -67
141 l-66 92 0 88 c0 73 3 90 18 98 24 15 165 14 180 -1z m-1900 -15 c12 -24 3
-412 -10 -436 -7 -14 -12 -16 -18 -7 -6 10 -12 9 -31 -1 -22 -11 -23 -11 -10
4 9 11 10 17 2 17 -8 0 -11 55 -11 186 l0 185 -27 -3 -28 -3 -3 -187 -2 -188
-40 0 -40 0 0 209 c0 115 3 216 6 225 5 13 24 16 105 16 84 0 100 -3 107 -17z
m260 -215 l2 -228 -40 0 -40 0 -2 193 -3 192 -27 3 -27 3 -3 -170 c-2 -94 0
-184 3 -200 5 -22 3 -28 -7 -24 -8 3 -11 10 -7 17 3 6 -3 3 -14 -7 -15 -13
-23 -15 -28 -7 -6 9 -10 9 -16 -1 -7 -11 -15 311 -11 411 3 50 5 51 114 48
l103 -3 3 -227z m812 191 l0 -42 -34 6 c-68 11 -76 3 -76 -74 l0 -69 48 0 49
0 1 -40 2 -40 -48 0 -47 0 3 -50 c3 -32 -1 -57 -10 -67 -11 -14 -11 -16 1 -8
10 5 12 4 7 -4 -4 -6 -14 -10 -21 -9 -8 2 -14 -1 -14 -7 0 -5 7 -9 15 -7 21 4
17 -6 -7 -19 -16 -8 -20 -8 -14 0 4 8 -2 10 -19 7 -14 -3 -26 0 -26 6 0 5 8 7
17 4 16 -6 16 -5 1 11 -18 20 -24 129 -20 331 l2 112 95 0 95 0 0 -41z m240
26 c8 -10 10 -49 6 -137 -6 -147 -6 -132 0 -240 4 -62 2 -88 -6 -88 -6 0 -8 5
-4 11 5 8 -1 10 -19 5 -16 -4 -28 -1 -31 7 -4 6 -4 1 -2 -12 3 -14 1 -20 -4
-15 -5 5 -10 43 -12 84 -3 73 -4 75 -28 75 -24 0 -25 -3 -28 -60 -2 -33 -7
-64 -12 -69 -6 -6 -5 -16 3 -25 8 -12 6 -11 -9 1 -16 14 -23 15 -33 5 -10 -9
-11 -8 -5 7 5 13 4 17 -3 13 -8 -5 -13 15 -16 60 -3 38 -9 85 -12 106 -5 26
-4 37 5 37 9 0 11 31 7 125 l-5 125 98 0 c73 0 101 -4 110 -15z m130 -215 c0
-152 -3 -230 -10 -230 -5 0 -13 0 -17 1 -4 0 -11 -8 -15 -18 -6 -12 -7 -10 -3
9 4 22 2 26 -10 22 -8 -4 -15 -12 -15 -20 0 -8 -3 -14 -8 -14 -4 0 -8 108 -9
240 l-2 240 44 0 44 0 1 -230z m228 193 c-3 -36 -5 -38 -38 -39 -74 -2 -70 2
-70 -74 l0 -70 48 0 49 0 1 -40 2 -40 -50 0 -50 0 -1 -65 c-1 -36 -3 -69 -4
-75 -1 -5 -3 -16 -4 -22 -1 -8 -6 -6 -12 5 -8 13 -14 15 -29 7 -10 -5 -21 -10
-24 -10 -10 0 -18 178 -17 358 l1 102 101 0 100 0 -3 -37z"/>
<path d="M3018 4663 c-1 -49 0 -114 1 -147 2 -44 0 -57 -9 -51 -9 6 -9 2 0
-15 6 -12 9 -24 6 -28 -3 -3 -6 -2 -6 3 0 4 -9 0 -20 -10 -11 -10 -20 -23 -20
-28 0 -6 7 -2 15 9 14 19 14 19 15 -2 0 -25 28 -51 53 -51 25 0 21 5 -15 21
-31 14 -31 15 -6 11 41 -5 52 16 45 90 l-6 64 42 3 42 3 3 108 3 107 -71 0
-70 0 -2 -87z"/>
<path d="M3221 4568 c-1 -159 -3 -185 -18 -195 -9 -7 -12 -13 -7 -13 6 0 14 4
20 9 5 6 32 11 59 13 46 3 50 5 50 28 0 19 -5 25 -22 24 -23 -1 -23 0 -23 158
l0 158 -29 0 -30 0 0 -182z"/>
<path d="M3420 4741 c0 -8 -37 -234 -55 -333 -4 -26 -2 -28 29 -28 31 0 34 3
40 40 3 22 10 40 15 40 5 0 11 -18 15 -40 6 -37 9 -40 38 -40 l31 0 -7 58 c-4
31 -17 113 -29 182 -22 123 -23 125 -49 128 -16 2 -28 -1 -28 -7z"/>
<path d="M3530 4739 c0 -7 14 -55 30 -107 27 -84 30 -104 25 -174 l-6 -78 31
0 30 0 0 89 c0 80 7 120 30 176 12 30 30 87 30 97 0 5 -15 8 -32 6 -32 -3 -33
-5 -36 -50 -2 -27 -7 -48 -12 -48 -4 0 -13 23 -20 50 -11 46 -14 50 -41 50
-16 0 -29 -5 -29 -11z"/>
<path d="M3740 4678 c-1 -40 -2 -84 -2 -98 -1 -14 -1 -64 0 -112 l2 -88 65 0
c62 0 65 1 65 24 0 19 -7 26 -30 31 -29 6 -30 9 -30 61 0 53 0 54 30 54 25 0
30 4 30 25 0 22 -4 25 -36 25 -29 0 -35 3 -30 16 3 9 6 28 6 44 0 25 4 29 33
32 27 2 33 8 35 31 l3 27 -70 0 -71 0 0 -72z"/>
<path d="M4131 4580 c-1 -94 -4 -177 -8 -185 -5 -14 6 -15 78 -13 l84 3 0 180
0 180 -25 0 -25 0 -3 -157 c-2 -149 -3 -157 -22 -155 -19 1 -20 9 -20 159 l0
158 -29 0 -29 0 -1 -170z"/>
<path d="M4348 4583 c-4 -214 -4 -215 30 -211 l27 3 -2 83 c-1 46 0 82 2 80 8
-7 45 -124 45 -140 0 -24 39 -45 51 -27 5 8 8 95 6 194 l-2 180 -25 0 c-25 0
-25 -1 -23 -80 l3 -80 -20 43 c-10 23 -25 60 -31 82 -10 32 -17 40 -35 40 -23
0 -23 0 -26 -167z"/>
<path d="M4568 4562 l-3 -188 28 4 c30 5 30 6 28 97 -2 67 8 91 34 81 13 -5
16 -18 15 -64 -4 -105 -3 -112 25 -112 29 0 28 -1 25 105 -1 63 -6 84 -21 101
-23 25 -23 32 -4 71 8 16 18 44 21 61 6 29 4 32 -19 32 -22 0 -28 -7 -36 -37
-6 -21 -11 -43 -11 -49 0 -5 -7 -19 -15 -30 -13 -17 -14 -13 -9 49 l6 67 -30
0 -31 0 -3 -188z"/>
<path d="M4777 4743 c-2 -5 -2 -14 -1 -20 1 -7 2 -90 3 -184 l1 -170 33 3 c31
3 32 4 37 58 l5 55 16 -52 c12 -38 14 -53 5 -57 -6 -3 7 -4 29 -3 l40 2 0 185
0 185 -30 0 -30 0 3 -78 c1 -50 -1 -76 -8 -72 -5 3 -10 15 -10 25 0 10 -4 22
-10 25 -5 3 -10 18 -10 33 0 54 -11 72 -41 72 -15 0 -30 -3 -32 -7z"/>
<path d="M5003 4738 c-8 -15 -7 -334 2 -348 3 -6 15 -10 26 -10 13 0 18 -4 13
-12 -6 -10 -4 -10 7 0 7 6 30 12 50 12 33 0 38 3 44 29 3 16 6 85 6 153 -1
106 -3 139 -10 181 -2 13 -129 8 -138 -5z"/>
<path d="M5190 4733 c0 -10 9 -65 20 -123 12 -57 20 -120 19 -140 -4 -62 9
-90 42 -90 33 0 33 0 47 90 10 63 11 63 8 12 -2 -29 1 -55 5 -58 5 -3 9 -14 9
-25 0 -14 7 -19 29 -19 36 0 39 8 51 124 6 50 17 122 25 161 19 90 20 87 -12
83 -27 -3 -29 -6 -44 -98 -8 -52 -18 -90 -21 -85 -3 6 -9 50 -13 98 -7 88 -8
88 -34 85 -25 -3 -26 -6 -35 -95 -5 -51 -12 -93 -16 -93 -3 0 -13 43 -20 95
-13 89 -15 95 -37 95 -15 0 -23 -6 -23 -17z"/>
<path d="M5510 4561 l0 -191 30 0 c27 0 30 3 32 33 1 42 -1 86 -8 117 -9 41
12 10 30 -44 9 -27 16 -59 16 -70 0 -12 6 -28 13 -37 11 -14 16 -15 30 -4 20
15 21 19 18 238 l-1 147 -30 0 c-29 0 -29 0 -32 -67 l-3 -68 -21 65 c-18 57
-24 65 -47 68 l-27 3 0 -190z"/>
<path d="M5846 4742 c-3 -5 -6 -33 -7 -63 -2 -49 2 -60 38 -114 41 -59 46 -74
44 -107 -1 -25 -31 -23 -31 2 0 15 -7 20 -29 20 -17 0 -33 -4 -36 -10 -3 -5
-2 -10 2 -10 5 0 8 -17 8 -37 l0 -38 69 -3 c82 -4 86 1 85 79 -1 43 -7 63 -23
80 -71 78 -96 139 -62 152 18 7 26 -1 26 -25 0 -12 7 -18 24 -18 19 0 25 6 28
33 7 63 3 67 -67 67 -35 0 -66 -4 -69 -8z"/>
<path d="M4685 4041 c-9 -15 -7 -243 2 -252 4 -4 22 -9 38 -11 l30 -3 5 128
c3 70 4 132 2 137 -5 13 -69 13 -77 1z"/>
<path d="M1753 4053 c-13 -2 -23 -7 -24 -11 -6 -49 -7 -78 -8 -137 0 -38 0
-80 0 -92 -1 -24 30 -38 66 -31 14 3 17 11 15 46 -3 35 0 42 14 42 16 0 17 1
1 13 -13 9 -16 26 -14 82 3 63 -5 97 -22 94 -3 -1 -16 -4 -28 -6z"/>
</g>
</svg>
